ISO-10303-21;
HEADER;
FILE_DESCRIPTION (( 'STEP AP214' ),
    '1' );
FILE_NAME ('EasyMech Heavy Duty 100mm Disc Wheel Gray.STEP',
    '2026-09-12T11:51:34',
    ( '' ),
    ( '' ),
    'SwSTEP 2.0',
    'SolidWorks 2026',
    '' );
FILE_SCHEMA (( 'AUTOMOTIVE_DESIGN' ));
ENDSEC;

DATA;
#1 = DIRECTION ( 'NONE',  ( 1.000000000000000000, 0.000000000000000000, 0.000000000000000000 ) ) ;
#2 = ORIENTED_EDGE ( 'NONE', *, *, #42, .F. ) ;
#3 = EDGE_LOOP ( 'NONE', ( #23, #106 ) ) ;
#4 = ADVANCED_FACE ( 'NONE', ( #90 ), #164, .F. ) ;
#5 = VERTEX_POINT ( 'NONE', #64 ) ;
#6 = SURFACE_SIDE_STYLE ('',( #144 ) ) ;
#7 = ORIENTED_EDGE ( 'NONE', *, *, #86, .F. ) ;
#8 =( LENGTH_UNIT ( ) NAMED_UNIT ( * ) SI_UNIT ( .CENTI., .METRE. ) );
#9 = LINE ( 'NONE', #165, #166 ) ;
#10 = CARTESIAN_POINT ( 'NONE',  ( 0.000000000000000000, 0.000000000000000000, 2.600000000000000089 ) ) ;
#11 = SHAPE_DEFINITION_REPRESENTATION ( #95, #34 ) ;
#12 = DIRECTION ( 'NONE',  ( 0.000000000000000000, 0.000000000000000000, 1.000000000000000000 ) ) ;
#13 = CARTESIAN_POINT ( 'NONE',  ( -5.000000000000000000, 0.000000000000000000, 0.000000000000000000 ) ) ;
#14 = CIRCLE ( 'NONE', #186, 0.5499999999999999334 ) ;
#15 = EDGE_CURVE ( 'NONE', #159, #54, #141, .T. ) ;
#16 = DIRECTION ( 'NONE',  ( 0.000000000000000000, 0.000000000000000000, 1.000000000000000000 ) ) ;
#17 =( LENGTH_UNIT ( ) NAMED_UNIT ( * ) SI_UNIT ( .CENTI., .METRE. ) );
#18 = CARTESIAN_POINT ( 'NONE',  ( 0.5499999999999999334, 6.735557395310442516E-17, 0.000000000000000000 ) ) ;
#19 = ORIENTED_EDGE ( 'NONE', *, *, #71, .F. ) ;
#20 = AXIS2_PLACEMENT_3D ( 'NONE', #110, #122, #169 ) ;
#21 = EDGE_CURVE ( 'NONE', #54, #159, #57, .T. ) ;
#22 = FILL_AREA_STYLE_COLOUR ( '', #174 ) ;
#23 = ORIENTED_EDGE ( 'NONE', *, *, #79, .T. ) ;
#24 = ORIENTED_EDGE ( 'NONE', *, *, #21, .F. ) ;
#25 = VERTEX_POINT ( 'NONE', #43 ) ;
#26 = VECTOR ( 'NONE', #82, 100.0000000000000000 ) ;
#27 = ORIENTED_EDGE ( 'NONE', *, *, #55, .T. ) ;
#28 = DIRECTION ( 'NONE',  ( -0.000000000000000000, -0.000000000000000000, -1.000000000000000000 ) ) ;
#29 = CARTESIAN_POINT ( 'NONE',  ( -0.5499999999999999334, 0.000000000000000000, 2.600000000000000089 ) ) ;
#30 = CARTESIAN_POINT ( 'NONE',  ( 0.000000000000000000, 0.000000000000000000, 0.000000000000000000 ) ) ;
#31 = CARTESIAN_POINT ( 'NONE',  ( 0.000000000000000000, 0.000000000000000000, 2.600000000000000089 ) ) ;
#32 =( NAMED_UNIT ( * ) PLANE_ANGLE_UNIT ( ) SI_UNIT ( $, .RADIAN. ) );
#33 = PRODUCT_RELATED_PRODUCT_CATEGORY ( 'part', '', ( #123 ) ) ;
#34 = ADVANCED_BREP_SHAPE_REPRESENTATION ( 'EasyMech Heavy Duty 100mm Disc Wheel Gray', ( #73, #20 ), #194 ) ;
#35 = FACE_BOUND ( 'NONE', #102, .T. ) ;
#36 = ORIENTED_EDGE ( 'NONE', *, *, #55, .F. ) ;
#37 = ORIENTED_EDGE ( 'NONE', *, *, #179, .F. ) ;
#38 = ORIENTED_EDGE ( 'NONE', *, *, #15, .T. ) ;
#39 = EDGE_CURVE ( 'NONE', #25, #118, #158, .T. ) ;
#40 = ORIENTED_EDGE ( 'NONE', *, *, #21, .T. ) ;
#41 = VECTOR ( 'NONE', #76, 100.0000000000000000 ) ;
#42 = EDGE_CURVE ( 'NONE', #104, #143, #92, .T. ) ;
#43 = CARTESIAN_POINT ( 'NONE',  ( 0.5499999999999999334, 6.735557395310442516E-17, 2.600000000000000089 ) ) ;
#44 = PLANE ( 'NONE',  #191 ) ;
#45 = DIRECTION ( 'NONE',  ( -1.000000000000000000, 0.000000000000000000, 0.000000000000000000 ) ) ;
#46 = PRODUCT_DEFINITION_FORMATION_WITH_SPECIFIED_SOURCE ( 'ANY', '', #123, .NOT_KNOWN. ) ;
#47 = DIRECTION ( 'NONE',  ( 1.000000000000000000, 0.000000000000000000, 0.000000000000000000 ) ) ;
#48 = FACE_OUTER_BOUND ( 'NONE', #99, .T. ) ;
#49 = APPLICATION_PROTOCOL_DEFINITION ( 'draft international standard', 'automotive_design', 1998, #52 ) ;
#50 = AXIS2_PLACEMENT_3D ( 'NONE', #78, #133, #114 ) ;
#51 = DIRECTION ( 'NONE',  ( -0.000000000000000000, -0.000000000000000000, -1.000000000000000000 ) ) ;
#52 = APPLICATION_CONTEXT ( 'automotive_design' ) ;
#53 = DIRECTION ( 'NONE',  ( -1.000000000000000000, 0.000000000000000000, 0.000000000000000000 ) ) ;
#54 = VERTEX_POINT ( 'NONE', #109 ) ;
#55 = EDGE_CURVE ( 'NONE', #118, #5, #168, .T. ) ;
#56 = DIRECTION ( 'NONE',  ( 1.000000000000000000, 0.000000000000000000, 0.000000000000000000 ) ) ;
#57 = CIRCLE ( 'NONE', #195, 5.000000000000000000 ) ;
#58 = PRODUCT_CONTEXT ( 'NONE', #52, 'mechanical' ) ;
#59 = PRODUCT_DEFINITION_CONTEXT ( 'detailed design', #156, 'design' ) ;
#60 = AXIS2_PLACEMENT_3D ( 'NONE', #10, #12, #150 ) ;
#61 = CARTESIAN_POINT ( 'NONE',  ( 0.000000000000000000, 0.000000000000000000, 2.600000000000000089 ) ) ;
#62 = EDGE_CURVE ( 'NONE', #87, #5, #152, .T. ) ;
#63 = AXIS2_PLACEMENT_3D ( 'NONE', #61, #183, #45 ) ;
#64 = CARTESIAN_POINT ( 'NONE',  ( -0.5499999999999999334, 0.000000000000000000, 0.000000000000000000 ) ) ;
#65 = STYLED_ITEM ( 'NONE', ( #157 ), #73 ) ;
#66 = ORIENTED_EDGE ( 'NONE', *, *, #15, .F. ) ;
#67 = ORIENTED_EDGE ( 'NONE', *, *, #97, .T. ) ;
#68 = SURFACE_STYLE_USAGE ( .BOTH. , #6 ) ;
#69 = DIRECTION ( 'NONE',  ( 0.000000000000000000, 0.000000000000000000, 1.000000000000000000 ) ) ;
#70 = ORIENTED_EDGE ( 'NONE', *, *, #39, .T. ) ;
#71 = EDGE_CURVE ( 'NONE', #25, #87, #9, .T. ) ;
#72 = AXIS2_PLACEMENT_3D ( 'NONE', #74, #91, #147 ) ;
#73 = MANIFOLD_SOLID_BREP ( 'Boss-Extrude1', #126 ) ;
#74 = CARTESIAN_POINT ( 'NONE',  ( 0.000000000000000000, 0.000000000000000000, 0.000000000000000000 ) ) ;
#75 = FACE_OUTER_BOUND ( 'NONE', #162, .T. ) ;
#76 = DIRECTION ( 'NONE',  ( -0.000000000000000000, -0.000000000000000000, -1.000000000000000000 ) ) ;
#77 = DIRECTION ( 'NONE',  ( 0.000000000000000000, 0.000000000000000000, 1.000000000000000000 ) ) ;
#78 = CARTESIAN_POINT ( 'NONE',  ( 0.000000000000000000, 0.000000000000000000, 2.600000000000000089 ) ) ;
#79 = EDGE_CURVE ( 'NONE', #5, #87, #14, .T. ) ;
#80 = CARTESIAN_POINT ( 'NONE',  ( 5.000000000000000000, 6.123233995736766282E-16, 0.000000000000000000 ) ) ;
#81 = AXIS2_PLACEMENT_3D ( 'NONE', #188, #69, #1 ) ;
#82 = DIRECTION ( 'NONE',  ( -0.000000000000000000, -0.000000000000000000, -1.000000000000000000 ) ) ;
#83 = FILL_AREA_STYLE ('',( #22 ) ) ;
#84 = CARTESIAN_POINT ( 'NONE',  ( -5.000000000000000000, 0.000000000000000000, 2.600000000000000089 ) ) ;
#85 = ORIENTED_EDGE ( 'NONE', *, *, #86, .T. ) ;
#86 = EDGE_CURVE ( 'NONE', #54, #143, #196, .T. ) ;
#87 = VERTEX_POINT ( 'NONE', #18 ) ;
#88 = PRESENTATION_LAYER_ASSIGNMENT (  '', '', ( #65 ) ) ;
#89 = ORIENTED_EDGE ( 'NONE', *, *, #148, .F. ) ;
#90 = FACE_OUTER_BOUND ( 'NONE', #127, .T. ) ;
#91 = DIRECTION ( 'NONE',  ( 0.000000000000000000, 0.000000000000000000, 1.000000000000000000 ) ) ;
#92 = CIRCLE ( 'NONE', #105, 5.000000000000000000 ) ;
#93 =( NAMED_UNIT ( * ) SI_UNIT ( $, .STERADIAN. ) SOLID_ANGLE_UNIT ( ) );
#94 = DIRECTION ( 'NONE',  ( 0.000000000000000000, 0.000000000000000000, 1.000000000000000000 ) ) ;
#95 = PRODUCT_DEFINITION_SHAPE ( 'NONE', 'NONE',  #115 ) ;
#96 = FACE_OUTER_BOUND ( 'NONE', #119, .T. ) ;
#97 = EDGE_CURVE ( 'NONE', #118, #25, #131, .T. ) ;
#98 = CYLINDRICAL_SURFACE ( 'NONE', #120, 5.000000000000000000 ) ;
#99 = EDGE_LOOP ( 'NONE', ( #40, #38 ) ) ;
#100 = UNCERTAINTY_MEASURE_WITH_UNIT (LENGTH_MEASURE( 1.000000000000000082E-05 ), #8, 'distance_accuracy_value', 'NONE');
#101 = ADVANCED_FACE ( 'NONE', ( #48, #35 ), #112, .T. ) ;
#102 = EDGE_LOOP ( 'NONE', ( #146, #177 ) ) ;
#103 = DIRECTION ( 'NONE',  ( 1.000000000000000000, 0.000000000000000000, 0.000000000000000000 ) ) ;
#104 = VERTEX_POINT ( 'NONE', #80 ) ;
#105 = AXIS2_PLACEMENT_3D ( 'NONE', #107, #181, #56 ) ;
#106 = ORIENTED_EDGE ( 'NONE', *, *, #62, .T. ) ;
#107 = CARTESIAN_POINT ( 'NONE',  ( 0.000000000000000000, 0.000000000000000000, 0.000000000000000000 ) ) ;
#108 = ADVANCED_FACE ( 'NONE', ( #173, #187 ), #44, .F. ) ;
#109 = CARTESIAN_POINT ( 'NONE',  ( -5.000000000000000000, 0.000000000000000000, 2.600000000000000089 ) ) ;
#110 = CARTESIAN_POINT ( 'NONE',  ( 0.000000000000000000, 0.000000000000000000, 0.000000000000000000 ) ) ;
#111 = DIRECTION ( 'NONE',  ( 1.000000000000000000, 0.000000000000000000, -0.000000000000000000 ) ) ;
#112 = PLANE ( 'NONE',  #155 ) ;
#113 = CARTESIAN_POINT ( 'NONE',  ( 5.000000000000000000, 6.123233995736766282E-16, 2.600000000000000089 ) ) ;
#114 = DIRECTION ( 'NONE',  ( -1.000000000000000000, 0.000000000000000000, 0.000000000000000000 ) ) ;
#115 = PRODUCT_DEFINITION ( 'UNKNOWN', '', #46, #59 ) ;
#116 =( GEOMETRIC_REPRESENTATION_CONTEXT ( 3 ) GLOBAL_UNCERTAINTY_ASSIGNED_CONTEXT ( ( #100 ) ) GLOBAL_UNIT_ASSIGNED_CONTEXT ( ( #8, #130, #193 ) ) REPRESENTATION_CONTEXT ( 'NONE', 'WORKASPACE' ) );
#117 = CARTESIAN_POINT ( 'NONE',  ( 0.000000000000000000, 0.000000000000000000, 2.600000000000000089 ) ) ;
#118 = VERTEX_POINT ( 'NONE', #170 ) ;
#119 = EDGE_LOOP ( 'NONE', ( #37, #24, #85, #142 ) ) ;
#120 = AXIS2_PLACEMENT_3D ( 'NONE', #153, #136, #171 ) ;
#121 = DIRECTION ( 'NONE',  ( 1.000000000000000000, 0.000000000000000000, 0.000000000000000000 ) ) ;
#122 = DIRECTION ( 'NONE',  ( 0.000000000000000000, 0.000000000000000000, 1.000000000000000000 ) ) ;
#123 = PRODUCT ( 'EasyMech Heavy Duty 100mm Disc Wheel Gray', 'EasyMech Heavy Duty 100mm Disc Wheel Gray', '', ( #58 ) ) ;
#124 = CYLINDRICAL_SURFACE ( 'NONE', #63, 0.5499999999999999334 ) ;
#125 = DIRECTION ( 'NONE',  ( 0.000000000000000000, 0.000000000000000000, 1.000000000000000000 ) ) ;
#126 = CLOSED_SHELL ( 'NONE', ( #154, #134, #101, #108, #185, #4 ) ) ;
#127 = EDGE_LOOP ( 'NONE', ( #19, #70, #27, #190 ) ) ;
#128 = ORIENTED_EDGE ( 'NONE', *, *, #79, .F. ) ;
#129 = EDGE_LOOP ( 'NONE', ( #89, #2 ) ) ;
#130 =( NAMED_UNIT ( * ) PLANE_ANGLE_UNIT ( ) SI_UNIT ( $, .RADIAN. ) );
#131 = CIRCLE ( 'NONE', #81, 0.5499999999999999334 ) ;
#132 = CIRCLE ( 'NONE', #163, 5.000000000000000000 ) ;
#133 = DIRECTION ( 'NONE',  ( -0.000000000000000000, -0.000000000000000000, -1.000000000000000000 ) ) ;
#134 = ADVANCED_FACE ( 'NONE', ( #75 ), #182, .T. ) ;
#135 = CARTESIAN_POINT ( 'NONE',  ( 0.000000000000000000, 0.000000000000000000, 0.000000000000000000 ) ) ;
#136 = DIRECTION ( 'NONE',  ( -0.000000000000000000, -0.000000000000000000, -1.000000000000000000 ) ) ;
#137 = DIRECTION ( 'NONE',  ( 1.000000000000000000, 0.000000000000000000, 0.000000000000000000 ) ) ;
#138 = LINE ( 'NONE', #113, #41 ) ;
#139 = CARTESIAN_POINT ( 'NONE',  ( 0.000000000000000000, 0.000000000000000000, 0.000000000000000000 ) ) ;
#140 = VECTOR ( 'NONE', #28, 100.0000000000000000 ) ;
#141 = CIRCLE ( 'NONE', #149, 5.000000000000000000 ) ;
#142 = ORIENTED_EDGE ( 'NONE', *, *, #148, .T. ) ;
#143 = VERTEX_POINT ( 'NONE', #13 ) ;
#144 = SURFACE_STYLE_FILL_AREA ( #83 ) ;
#145 = ORIENTED_EDGE ( 'NONE', *, *, #71, .T. ) ;
#146 = ORIENTED_EDGE ( 'NONE', *, *, #97, .F. ) ;
#147 = DIRECTION ( 'NONE',  ( 1.000000000000000000, 0.000000000000000000, 0.000000000000000000 ) ) ;
#148 = EDGE_CURVE ( 'NONE', #143, #104, #132, .T. ) ;
#149 = AXIS2_PLACEMENT_3D ( 'NONE', #117, #125, #103 ) ;
#150 = DIRECTION ( 'NONE',  ( 1.000000000000000000, 0.000000000000000000, 0.000000000000000000 ) ) ;
#151 = DIRECTION ( 'NONE',  ( 1.000000000000000000, 0.000000000000000000, -0.000000000000000000 ) ) ;
#152 = CIRCLE ( 'NONE', #72, 0.5499999999999999334 ) ;
#153 = CARTESIAN_POINT ( 'NONE',  ( 0.000000000000000000, 0.000000000000000000, 2.600000000000000089 ) ) ;
#154 = ADVANCED_FACE ( 'NONE', ( #198 ), #124, .F. ) ;
#155 = AXIS2_PLACEMENT_3D ( 'NONE', #31, #16, #151 ) ;
#156 = APPLICATION_CONTEXT ( 'automotive_design' ) ;
#157 = PRESENTATION_STYLE_ASSIGNMENT (( #68 ) ) ;
#158 = CIRCLE ( 'NONE', #60, 0.5499999999999999334 ) ;
#159 = VERTEX_POINT ( 'NONE', #189 ) ;
#160 = CARTESIAN_POINT ( 'NONE',  ( 0.000000000000000000, 0.000000000000000000, 2.600000000000000089 ) ) ;
#161 = DIRECTION ( 'NONE',  ( -0.000000000000000000, -0.000000000000000000, -1.000000000000000000 ) ) ;
#162 = EDGE_LOOP ( 'NONE', ( #66, #178, #192, #7 ) ) ;
#163 = AXIS2_PLACEMENT_3D ( 'NONE', #30, #94, #47 ) ;
#164 = CYLINDRICAL_SURFACE ( 'NONE', #199, 0.5499999999999999334 ) ;
#165 = CARTESIAN_POINT ( 'NONE',  ( 0.5499999999999999334, 6.735557395310442516E-17, 2.600000000000000089 ) ) ;
#166 = VECTOR ( 'NONE', #161, 100.0000000000000000 ) ;
#167 = DIRECTION ( 'NONE',  ( 0.000000000000000000, 0.000000000000000000, 1.000000000000000000 ) ) ;
#168 = LINE ( 'NONE', #29, #140 ) ;
#169 = DIRECTION ( 'NONE',  ( 1.000000000000000000, 0.000000000000000000, 0.000000000000000000 ) ) ;
#170 = CARTESIAN_POINT ( 'NONE',  ( -0.5499999999999999334, 0.000000000000000000, 2.600000000000000089 ) ) ;
#171 = DIRECTION ( 'NONE',  ( -1.000000000000000000, 0.000000000000000000, 0.000000000000000000 ) ) ;
#172 = UNCERTAINTY_MEASURE_WITH_UNIT (LENGTH_MEASURE( 1.000000000000000082E-05 ), #17, 'distance_accuracy_value', 'NONE');
#173 = FACE_OUTER_BOUND ( 'NONE', #129, .T. ) ;
#174 = COLOUR_RGB ( '',0.7921568627450980005, 0.8196078431372548767, 0.9333333333333333481 ) ;
#175 = CARTESIAN_POINT ( 'NONE',  ( 0.000000000000000000, 0.000000000000000000, 2.600000000000000089 ) ) ;
#176 = EDGE_LOOP ( 'NONE', ( #67, #145, #128, #36 ) ) ;
#177 = ORIENTED_EDGE ( 'NONE', *, *, #39, .F. ) ;
#178 = ORIENTED_EDGE ( 'NONE', *, *, #179, .T. ) ;
#179 = EDGE_CURVE ( 'NONE', #159, #104, #138, .T. ) ;
#180 = MECHANICAL_DESIGN_GEOMETRIC_PRESENTATION_REPRESENTATION (  '', ( #65 ), #116 ) ;
#181 = DIRECTION ( 'NONE',  ( 0.000000000000000000, 0.000000000000000000, 1.000000000000000000 ) ) ;
#182 = CYLINDRICAL_SURFACE ( 'NONE', #50, 5.000000000000000000 ) ;
#183 = DIRECTION ( 'NONE',  ( -0.000000000000000000, -0.000000000000000000, -1.000000000000000000 ) ) ;
#184 = DIRECTION ( 'NONE',  ( 0.000000000000000000, 0.000000000000000000, 1.000000000000000000 ) ) ;
#185 = ADVANCED_FACE ( 'NONE', ( #96 ), #98, .T. ) ;
#186 = AXIS2_PLACEMENT_3D ( 'NONE', #135, #77, #137 ) ;
#187 = FACE_BOUND ( 'NONE', #3, .T. ) ;
#188 = CARTESIAN_POINT ( 'NONE',  ( 0.000000000000000000, 0.000000000000000000, 2.600000000000000089 ) ) ;
#189 = CARTESIAN_POINT ( 'NONE',  ( 5.000000000000000000, 6.123233995736766282E-16, 2.600000000000000089 ) ) ;
#190 = ORIENTED_EDGE ( 'NONE', *, *, #62, .F. ) ;
#191 = AXIS2_PLACEMENT_3D ( 'NONE', #139, #184, #111 ) ;
#192 = ORIENTED_EDGE ( 'NONE', *, *, #42, .T. ) ;
#193 =( NAMED_UNIT ( * ) SI_UNIT ( $, .STERADIAN. ) SOLID_ANGLE_UNIT ( ) );
#194 =( GEOMETRIC_REPRESENTATION_CONTEXT ( 3 ) GLOBAL_UNCERTAINTY_ASSIGNED_CONTEXT ( ( #172 ) ) GLOBAL_UNIT_ASSIGNED_CONTEXT ( ( #17, #32, #93 ) ) REPRESENTATION_CONTEXT ( 'NONE', 'WORKASPACE' ) );
#195 = AXIS2_PLACEMENT_3D ( 'NONE', #160, #167, #121 ) ;
#196 = LINE ( 'NONE', #84, #26 ) ;
#197 = APPLICATION_PROTOCOL_DEFINITION ( 'draft international standard', 'automotive_design', 1998, #156 ) ;
#198 = FACE_OUTER_BOUND ( 'NONE', #176, .T. ) ;
#199 = AXIS2_PLACEMENT_3D ( 'NONE', #175, #51, #53 ) ;
ENDSEC;
END-ISO-10303-21;
