ISO-10303-21;
HEADER;
FILE_DESCRIPTION (( 'STEP AP214' ),
    '1' );
FILE_NAME ('GAONENG GNB 6S 22.2V 4000mAh 70C LiPo Battery .STEP',
    '2026-09-12T11:46:40',
    ( '' ),
    ( '' ),
    'SwSTEP 2.0',
    'SolidWorks 2026',
    '' );
FILE_SCHEMA (( 'AUTOMOTIVE_DESIGN' ));
ENDSEC;

DATA;
#1 = CARTESIAN_POINT ( 'NONE',  ( 4.299999999999999822, 7.000000000000000888, 0.000000000000000000 ) ) ;
#2 = SURFACE_STYLE_USAGE ( .BOTH. , #172 ) ;
#3 = EDGE_CURVE ( 'NONE', #104, #139, #90, .T. ) ;
#4 = CARTESIAN_POINT ( 'NONE',  ( 4.776122516674678272E-16, 7.000000000000000888, 3.899999999999999911 ) ) ;
#5 = LINE ( 'NONE', #162, #152 ) ;
#6 = VECTOR ( 'NONE', #118, 100.0000000000000000 ) ;
#7 = DIRECTION ( 'NONE',  ( -1.224646799147353454E-16, 0.000000000000000000, -1.000000000000000000 ) ) ;
#8 = ADVANCED_FACE ( 'NONE', ( #12 ), #79, .F. ) ;
#9 = ORIENTED_EDGE ( 'NONE', *, *, #100, .T. ) ;
#10 = EDGE_LOOP ( 'NONE', ( #182, #24, #46, #9 ) ) ;
#11 = VECTOR ( 'NONE', #107, 100.0000000000000000 ) ;
#12 = FACE_OUTER_BOUND ( 'NONE', #10, .T. ) ;
#13 = DIRECTION ( 'NONE',  ( 0.000000000000000000, 0.000000000000000000, 1.000000000000000000 ) ) ;
#14 = DIRECTION ( 'NONE',  ( 1.224646799147353454E-16, 0.000000000000000000, 1.000000000000000000 ) ) ;
#15 = FACE_OUTER_BOUND ( 'NONE', #112, .T. ) ;
#16 = PLANE ( 'NONE',  #20 ) ;
#17 = DIRECTION ( 'NONE',  ( 1.000000000000000000, 0.000000000000000000, 0.000000000000000000 ) ) ;
#18 = CARTESIAN_POINT ( 'NONE',  ( 4.299999999999999822, 7.000000000000000888, 0.000000000000000000 ) ) ;
#19 = FACE_OUTER_BOUND ( 'NONE', #41, .T. ) ;
#20 = AXIS2_PLACEMENT_3D ( 'NONE', #133, #161, #108 ) ;
#21 = APPLICATION_CONTEXT ( 'automotive_design' ) ;
#22 = EDGE_CURVE ( 'NONE', #139, #158, #62, .T. ) ;
#23 = ORIENTED_EDGE ( 'NONE', *, *, #131, .T. ) ;
#24 = ORIENTED_EDGE ( 'NONE', *, *, #83, .F. ) ;
#25 = ORIENTED_EDGE ( 'NONE', *, *, #150, .T. ) ;
#26 = ORIENTED_EDGE ( 'NONE', *, *, #83, .T. ) ;
#27 = CARTESIAN_POINT ( 'NONE',  ( 0.000000000000000000, 0.000000000000000000, 0.000000000000000000 ) ) ;
#28 = VERTEX_POINT ( 'NONE', #167 ) ;
#29 =( NAMED_UNIT ( * ) SI_UNIT ( $, .STERADIAN. ) SOLID_ANGLE_UNIT ( ) );
#30 = EDGE_CURVE ( 'NONE', #142, #166, #116, .T. ) ;
#31 = VECTOR ( 'NONE', #17, 100.0000000000000000 ) ;
#32 = SURFACE_STYLE_FILL_AREA ( #170 ) ;
#33 = CARTESIAN_POINT ( 'NONE',  ( 0.000000000000000000, -7.000000000000000888, 0.000000000000000000 ) ) ;
#34 = ORIENTED_EDGE ( 'NONE', *, *, #150, .F. ) ;
#35 = LINE ( 'NONE', #82, #38 ) ;
#36 = DIRECTION ( 'NONE',  ( -1.000000000000000000, -0.000000000000000000, -0.000000000000000000 ) ) ;
#37 = DIRECTION ( 'NONE',  ( -1.000000000000000000, -0.000000000000000000, -0.000000000000000000 ) ) ;
#38 = VECTOR ( 'NONE', #174, 100.0000000000000000 ) ;
#39 = AXIS2_PLACEMENT_3D ( 'NONE', #61, #78, #130 ) ;
#40 = ADVANCED_FACE ( 'NONE', ( #42 ), #146, .T. ) ;
#41 = EDGE_LOOP ( 'NONE', ( #75, #184, #113, #26 ) ) ;
#42 = FACE_OUTER_BOUND ( 'NONE', #58, .T. ) ;
#43 = UNCERTAINTY_MEASURE_WITH_UNIT (LENGTH_MEASURE( 1.000000000000000082E-05 ), #148, 'distance_accuracy_value', 'NONE');
#44 = ORIENTED_EDGE ( 'NONE', *, *, #22, .T. ) ;
#45 = SHAPE_DEFINITION_REPRESENTATION ( #149, #178 ) ;
#46 = ORIENTED_EDGE ( 'NONE', *, *, #80, .F. ) ;
#47 = DIRECTION ( 'NONE',  ( -1.779203565104417868E-16, -0.000000000000000000, -1.000000000000000000 ) ) ;
#48 = PRODUCT_DEFINITION_CONTEXT ( 'detailed design', #105, 'design' ) ;
#49 = MANIFOLD_SOLID_BREP ( 'Boss-Extrude1', #153 ) ;
#50 = CARTESIAN_POINT ( 'NONE',  ( 0.000000000000000000, 7.000000000000000888, 0.000000000000000000 ) ) ;
#51 = EDGE_CURVE ( 'NONE', #142, #28, #132, .T. ) ;
#52 = PLANE ( 'NONE',  #67 ) ;
#53 = DIRECTION ( 'NONE',  ( -0.000000000000000000, -1.000000000000000000, -0.000000000000000000 ) ) ;
#54 = CARTESIAN_POINT ( 'NONE',  ( 4.776122516674678272E-16, 7.000000000000000888, 3.899999999999999911 ) ) ;
#55 = DIRECTION ( 'NONE',  ( -1.000000000000000000, 0.000000000000000000, 1.779203565104417868E-16 ) ) ;
#56 = LINE ( 'NONE', #71, #181 ) ;
#57 = STYLED_ITEM ( 'NONE', ( #169 ), #49 ) ;
#58 = EDGE_LOOP ( 'NONE', ( #180, #25, #143, #101 ) ) ;
#59 = ORIENTED_EDGE ( 'NONE', *, *, #51, .T. ) ;
#60 = APPLICATION_PROTOCOL_DEFINITION ( 'draft international standard', 'automotive_design', 1998, #105 ) ;
#61 = CARTESIAN_POINT ( 'NONE',  ( 0.000000000000000000, 7.000000000000000888, 0.000000000000000000 ) ) ;
#62 = LINE ( 'NONE', #185, #68 ) ;
#63 = ADVANCED_FACE ( 'NONE', ( #15 ), #52, .F. ) ;
#64 =( LENGTH_UNIT ( ) NAMED_UNIT ( * ) SI_UNIT ( .CENTI., .METRE. ) );
#65 = CARTESIAN_POINT ( 'NONE',  ( 4.299999999999999822, -7.000000000000000888, 0.000000000000000000 ) ) ;
#66 = DIRECTION ( 'NONE',  ( 0.000000000000000000, -0.000000000000000000, 1.000000000000000000 ) ) ;
#67 = AXIS2_PLACEMENT_3D ( 'NONE', #98, #85, #177 ) ;
#68 = VECTOR ( 'NONE', #89, 100.0000000000000000 ) ;
#69 = CARTESIAN_POINT ( 'NONE',  ( 4.300000000000000711, 7.000000000000000888, 3.899999999999999911 ) ) ;
#70 = CARTESIAN_POINT ( 'NONE',  ( 4.299999999999999822, 7.000000000000000888, 0.000000000000000000 ) ) ;
#71 = CARTESIAN_POINT ( 'NONE',  ( 0.000000000000000000, 7.000000000000000888, 0.000000000000000000 ) ) ;
#72 = AXIS2_PLACEMENT_3D ( 'NONE', #110, #138, #7 ) ;
#73 = ADVANCED_FACE ( 'NONE', ( #19 ), #123, .F. ) ;
#74 = PRODUCT_DEFINITION_FORMATION_WITH_SPECIFIED_SOURCE ( 'ANY', '', #125, .NOT_KNOWN. ) ;
#75 = ORIENTED_EDGE ( 'NONE', *, *, #96, .T. ) ;
#76 = VECTOR ( 'NONE', #120, 100.0000000000000000 ) ;
#77 = EDGE_LOOP ( 'NONE', ( #102, #140, #155, #128 ) ) ;
#78 = DIRECTION ( 'NONE',  ( 0.000000000000000000, 0.000000000000000000, 1.000000000000000000 ) ) ;
#79 = PLANE ( 'NONE',  #39 ) ;
#80 = EDGE_CURVE ( 'NONE', #166, #104, #56, .T. ) ;
#81 = CARTESIAN_POINT ( 'NONE',  ( 0.000000000000000000, 7.000000000000000888, 0.000000000000000000 ) ) ;
#82 = CARTESIAN_POINT ( 'NONE',  ( 4.299999999999999822, -7.000000000000000888, 0.000000000000000000 ) ) ;
#83 = EDGE_CURVE ( 'NONE', #104, #103, #163, .T. ) ;
#84 = PLANE ( 'NONE',  #137 ) ;
#85 = DIRECTION ( 'NONE',  ( 0.000000000000000000, 0.000000000000000000, -1.000000000000000000 ) ) ;
#86 = VECTOR ( 'NONE', #117, 100.0000000000000000 ) ;
#87 = VERTEX_POINT ( 'NONE', #65 ) ;
#88 = EDGE_LOOP ( 'NONE', ( #23, #154, #157, #59 ) ) ;
#89 = DIRECTION ( 'NONE',  ( -0.000000000000000000, -1.000000000000000000, -0.000000000000000000 ) ) ;
#90 = LINE ( 'NONE', #115, #173 ) ;
#91 = AXIS2_PLACEMENT_3D ( 'NONE', #50, #159, #66 ) ;
#92 =( GEOMETRIC_REPRESENTATION_CONTEXT ( 3 ) GLOBAL_UNCERTAINTY_ASSIGNED_CONTEXT ( ( #156 ) ) GLOBAL_UNIT_ASSIGNED_CONTEXT ( ( #64, #134, #29 ) ) REPRESENTATION_CONTEXT ( 'NONE', 'WORKASPACE' ) );
#93 = FILL_AREA_STYLE_COLOUR ( '', #127 ) ;
#94 = FACE_OUTER_BOUND ( 'NONE', #77, .T. ) ;
#95 = LINE ( 'NONE', #54, #31 ) ;
#96 = EDGE_CURVE ( 'NONE', #103, #158, #160, .T. ) ;
#97 = FACE_OUTER_BOUND ( 'NONE', #88, .T. ) ;
#98 = CARTESIAN_POINT ( 'NONE',  ( 4.776122516674678272E-16, 7.000000000000000888, 3.899999999999999911 ) ) ;
#99 = PRESENTATION_LAYER_ASSIGNMENT (  '', '', ( #57 ) ) ;
#100 = EDGE_CURVE ( 'NONE', #166, #87, #171, .T. ) ;
#101 = ORIENTED_EDGE ( 'NONE', *, *, #80, .T. ) ;
#102 = ORIENTED_EDGE ( 'NONE', *, *, #96, .F. ) ;
#103 = VERTEX_POINT ( 'NONE', #33 ) ;
#104 = VERTEX_POINT ( 'NONE', #81 ) ;
#105 = APPLICATION_CONTEXT ( 'automotive_design' ) ;
#106 = MECHANICAL_DESIGN_GEOMETRIC_PRESENTATION_REPRESENTATION (  '', ( #57 ), #92 ) ;
#107 = DIRECTION ( 'NONE',  ( -0.000000000000000000, -1.000000000000000000, -0.000000000000000000 ) ) ;
#108 = DIRECTION ( 'NONE',  ( 0.000000000000000000, -0.000000000000000000, 1.000000000000000000 ) ) ;
#109 = ADVANCED_FACE ( 'NONE', ( #94 ), #16, .F. ) ;
#110 = CARTESIAN_POINT ( 'NONE',  ( 0.000000000000000000, 7.000000000000000888, 0.000000000000000000 ) ) ;
#111 = PRODUCT_RELATED_PRODUCT_CATEGORY ( 'part', '', ( #125 ) ) ;
#112 = EDGE_LOOP ( 'NONE', ( #165, #126, #34, #44 ) ) ;
#113 = ORIENTED_EDGE ( 'NONE', *, *, #3, .F. ) ;
#114 = DIRECTION ( 'NONE',  ( 1.000000000000000000, 0.000000000000000000, 0.000000000000000000 ) ) ;
#115 = CARTESIAN_POINT ( 'NONE',  ( 0.000000000000000000, 7.000000000000000888, 0.000000000000000000 ) ) ;
#116 = LINE ( 'NONE', #168, #164 ) ;
#117 = DIRECTION ( 'NONE',  ( -0.000000000000000000, -1.000000000000000000, -0.000000000000000000 ) ) ;
#118 = DIRECTION ( 'NONE',  ( 1.224646799147353454E-16, 0.000000000000000000, 1.000000000000000000 ) ) ;
#119 = VECTOR ( 'NONE', #53, 100.0000000000000000 ) ;
#120 = DIRECTION ( 'NONE',  ( 1.000000000000000000, 0.000000000000000000, 0.000000000000000000 ) ) ;
#121 =( NAMED_UNIT ( * ) SI_UNIT ( $, .STERADIAN. ) SOLID_ANGLE_UNIT ( ) );
#122 = DIRECTION ( 'NONE',  ( 1.779203565104417868E-16, 0.000000000000000000, 1.000000000000000000 ) ) ;
#123 = PLANE ( 'NONE',  #72 ) ;
#124 = PRODUCT_DEFINITION ( 'UNKNOWN', '', #74, #48 ) ;
#125 = PRODUCT ( 'GAONENG GNB 6S 22.2V 4000mAh 70C LiPo Battery ', 'GAONENG GNB 6S 22.2V 4000mAh 70C LiPo Battery ', '', ( #129 ) ) ;
#126 = ORIENTED_EDGE ( 'NONE', *, *, #51, .F. ) ;
#127 = COLOUR_RGB ( '',0.7921568627450980005, 0.8196078431372548767, 0.9333333333333333481 ) ;
#128 = ORIENTED_EDGE ( 'NONE', *, *, #144, .F. ) ;
#129 = PRODUCT_CONTEXT ( 'NONE', #21, 'mechanical' ) ;
#130 = DIRECTION ( 'NONE',  ( 1.000000000000000000, 0.000000000000000000, -0.000000000000000000 ) ) ;
#131 = EDGE_CURVE ( 'NONE', #28, #87, #35, .T. ) ;
#132 = LINE ( 'NONE', #187, #86 ) ;
#133 = CARTESIAN_POINT ( 'NONE',  ( 0.000000000000000000, -7.000000000000000888, 0.000000000000000000 ) ) ;
#134 =( NAMED_UNIT ( * ) PLANE_ANGLE_UNIT ( ) SI_UNIT ( $, .RADIAN. ) );
#135 =( NAMED_UNIT ( * ) PLANE_ANGLE_UNIT ( ) SI_UNIT ( $, .RADIAN. ) );
#136 = LINE ( 'NONE', #147, #76 ) ;
#137 = AXIS2_PLACEMENT_3D ( 'NONE', #70, #55, #122 ) ;
#138 = DIRECTION ( 'NONE',  ( 1.000000000000000000, 0.000000000000000000, -1.224646799147353454E-16 ) ) ;
#139 = VERTEX_POINT ( 'NONE', #4 ) ;
#140 = ORIENTED_EDGE ( 'NONE', *, *, #175, .F. ) ;
#141 =( GEOMETRIC_REPRESENTATION_CONTEXT ( 3 ) GLOBAL_UNCERTAINTY_ASSIGNED_CONTEXT ( ( #43 ) ) GLOBAL_UNIT_ASSIGNED_CONTEXT ( ( #148, #135, #121 ) ) REPRESENTATION_CONTEXT ( 'NONE', 'WORKASPACE' ) );
#142 = VERTEX_POINT ( 'NONE', #69 ) ;
#143 = ORIENTED_EDGE ( 'NONE', *, *, #30, .T. ) ;
#144 = EDGE_CURVE ( 'NONE', #158, #28, #136, .T. ) ;
#145 = CARTESIAN_POINT ( 'NONE',  ( 0.000000000000000000, -7.000000000000000888, 0.000000000000000000 ) ) ;
#146 = PLANE ( 'NONE',  #91 ) ;
#147 = CARTESIAN_POINT ( 'NONE',  ( 4.776122516674678272E-16, -7.000000000000000888, 3.899999999999999911 ) ) ;
#148 =( LENGTH_UNIT ( ) NAMED_UNIT ( * ) SI_UNIT ( .CENTI., .METRE. ) );
#149 = PRODUCT_DEFINITION_SHAPE ( 'NONE', 'NONE',  #124 ) ;
#150 = EDGE_CURVE ( 'NONE', #139, #142, #95, .T. ) ;
#151 = CARTESIAN_POINT ( 'NONE',  ( 0.000000000000000000, 7.000000000000000888, 0.000000000000000000 ) ) ;
#152 = VECTOR ( 'NONE', #36, 100.0000000000000000 ) ;
#153 = CLOSED_SHELL ( 'NONE', ( #73, #63, #179, #8, #40, #109 ) ) ;
#154 = ORIENTED_EDGE ( 'NONE', *, *, #100, .F. ) ;
#155 = ORIENTED_EDGE ( 'NONE', *, *, #131, .F. ) ;
#156 = UNCERTAINTY_MEASURE_WITH_UNIT (LENGTH_MEASURE( 1.000000000000000082E-05 ), #64, 'distance_accuracy_value', 'NONE');
#157 = ORIENTED_EDGE ( 'NONE', *, *, #30, .F. ) ;
#158 = VERTEX_POINT ( 'NONE', #176 ) ;
#159 = DIRECTION ( 'NONE',  ( 0.000000000000000000, 1.000000000000000000, 0.000000000000000000 ) ) ;
#160 = LINE ( 'NONE', #145, #6 ) ;
#161 = DIRECTION ( 'NONE',  ( 0.000000000000000000, 1.000000000000000000, 0.000000000000000000 ) ) ;
#162 = CARTESIAN_POINT ( 'NONE',  ( 0.000000000000000000, -7.000000000000000888, 0.000000000000000000 ) ) ;
#163 = LINE ( 'NONE', #151, #11 ) ;
#164 = VECTOR ( 'NONE', #47, 100.0000000000000000 ) ;
#165 = ORIENTED_EDGE ( 'NONE', *, *, #144, .T. ) ;
#166 = VERTEX_POINT ( 'NONE', #18 ) ;
#167 = CARTESIAN_POINT ( 'NONE',  ( 4.300000000000000711, -7.000000000000000888, 3.899999999999999911 ) ) ;
#168 = CARTESIAN_POINT ( 'NONE',  ( 4.299999999999999822, 7.000000000000000888, 0.000000000000000000 ) ) ;
#169 = PRESENTATION_STYLE_ASSIGNMENT (( #2 ) ) ;
#170 = FILL_AREA_STYLE ('',( #93 ) ) ;
#171 = LINE ( 'NONE', #1, #119 ) ;
#172 = SURFACE_SIDE_STYLE ('',( #32 ) ) ;
#173 = VECTOR ( 'NONE', #14, 100.0000000000000000 ) ;
#174 = DIRECTION ( 'NONE',  ( -1.779203565104417868E-16, -0.000000000000000000, -1.000000000000000000 ) ) ;
#175 = EDGE_CURVE ( 'NONE', #87, #103, #5, .T. ) ;
#176 = CARTESIAN_POINT ( 'NONE',  ( 4.776122516674678272E-16, -7.000000000000000888, 3.899999999999999911 ) ) ;
#177 = DIRECTION ( 'NONE',  ( -1.000000000000000000, 0.000000000000000000, -0.000000000000000000 ) ) ;
#178 = ADVANCED_BREP_SHAPE_REPRESENTATION ( 'GAONENG GNB 6S 22.2V 4000mAh 70C LiPo Battery ', ( #49, #186 ), #141 ) ;
#179 = ADVANCED_FACE ( 'NONE', ( #97 ), #84, .F. ) ;
#180 = ORIENTED_EDGE ( 'NONE', *, *, #3, .T. ) ;
#181 = VECTOR ( 'NONE', #37, 100.0000000000000000 ) ;
#182 = ORIENTED_EDGE ( 'NONE', *, *, #175, .T. ) ;
#183 = APPLICATION_PROTOCOL_DEFINITION ( 'draft international standard', 'automotive_design', 1998, #21 ) ;
#184 = ORIENTED_EDGE ( 'NONE', *, *, #22, .F. ) ;
#185 = CARTESIAN_POINT ( 'NONE',  ( 4.776122516674678272E-16, 7.000000000000000888, 3.899999999999999911 ) ) ;
#186 = AXIS2_PLACEMENT_3D ( 'NONE', #27, #13, #114 ) ;
#187 = CARTESIAN_POINT ( 'NONE',  ( 4.300000000000000711, 7.000000000000000888, 3.899999999999999911 ) ) ;
ENDSEC;
END-ISO-10303-21;
