ISO-10303-21;
HEADER;
FILE_DESCRIPTION (( 'STEP AP214' ),
    '1' );
FILE_NAME ('Pro-Range 72.6 N-cm 468 RPM 24V.STEP',
    '2026-09-12T12:01:47',
    ( '' ),
    ( '' ),
    'SwSTEP 2.0',
    'SolidWorks 2026',
    '' );
FILE_SCHEMA (( 'AUTOMOTIVE_DESIGN' ));
ENDSEC;

DATA;
#1 = PRODUCT_DEFINITION_FORMATION_WITH_SPECIFIED_SOURCE ( 'ANY', '', #158, .NOT_KNOWN. ) ;
#2 = CLOSED_SHELL ( 'NONE', ( #10, #302, #87, #100 ) ) ;
#3 = ORIENTED_EDGE ( 'NONE', *, *, #184, .F. ) ;
#4 = CARTESIAN_POINT ( 'NONE',  ( -0.4000000000000000222, 4.898587196589412459E-17, -2.000000000000000000 ) ) ;
#5 = DIRECTION ( 'NONE',  ( -0.000000000000000000, 0.000000000000000000, 1.000000000000000000 ) ) ;
#6 = CARTESIAN_POINT ( 'NONE',  ( -0.4000000000000000222, 0.000000000000000000, 0.000000000000000000 ) ) ;
#7 = DIRECTION ( 'NONE',  ( 1.000000000000000000, 0.000000000000000000, 0.000000000000000000 ) ) ;
#8 = DIRECTION ( 'NONE',  ( -0.000000000000000000, -0.000000000000000000, -1.000000000000000000 ) ) ;
#9 = DIRECTION ( 'NONE',  ( 1.000000000000000000, 0.000000000000000000, 0.000000000000000000 ) ) ;
#10 = ADVANCED_FACE ( 'NONE', ( #79 ), #203, .T. ) ;
#11 = DIRECTION ( 'NONE',  ( -1.000000000000000000, 0.000000000000000000, 0.000000000000000000 ) ) ;
#12 = EDGE_LOOP ( 'NONE', ( #123, #131 ) ) ;
#13 = CARTESIAN_POINT ( 'NONE',  ( 0.4000000000000000222, 4.898587196589411843E-17, 0.000000000000000000 ) ) ;
#14 = VECTOR ( 'NONE', #8, 100.0000000000000000 ) ;
#15 = APPLICATION_CONTEXT ( 'automotive_design' ) ;
#16 = CARTESIAN_POINT ( 'NONE',  ( 0.000000000000000000, 0.000000000000000000, 9.000000000000000000 ) ) ;
#17 = EDGE_CURVE ( 'NONE', #26, #140, #298, .T. ) ;
#18 = DIRECTION ( 'NONE',  ( 1.000000000000000000, 0.000000000000000000, 0.000000000000000000 ) ) ;
#19 = VECTOR ( 'NONE', #150, 100.0000000000000000 ) ;
#20 = CIRCLE ( 'NONE', #191, 0.4000000000000000222 ) ;
#21 = CIRCLE ( 'NONE', #51, 1.850000000000000311 ) ;
#22 = ORIENTED_EDGE ( 'NONE', *, *, #188, .T. ) ;
#23 = EDGE_CURVE ( 'NONE', #140, #26, #21, .T. ) ;
#24 =( LENGTH_UNIT ( ) NAMED_UNIT ( * ) SI_UNIT ( .CENTI., .METRE. ) );
#25 = VERTEX_POINT ( 'NONE', #32 ) ;
#26 = VERTEX_POINT ( 'NONE', #61 ) ;
#27 = UNCERTAINTY_MEASURE_WITH_UNIT (LENGTH_MEASURE( 1.000000000000000082E-05 ), #228, 'distance_accuracy_value', 'NONE');
#28 = EDGE_CURVE ( 'NONE', #211, #265, #181, .T. ) ;
#29 = DIRECTION ( 'NONE',  ( -0.000000000000000000, -0.000000000000000000, -1.000000000000000000 ) ) ;
#30 = FACE_OUTER_BOUND ( 'NONE', #12, .T. ) ;
#31 = CYLINDRICAL_SURFACE ( 'NONE', #89, 1.850000000000000311 ) ;
#32 = CARTESIAN_POINT ( 'NONE',  ( 0.4000000000000000222, 0.000000000000000000, -2.000000000000000000 ) ) ;
#33 = AXIS2_PLACEMENT_3D ( 'NONE', #65, #110, #136 ) ;
#34 = DIRECTION ( 'NONE',  ( -0.000000000000000000, -0.000000000000000000, -1.000000000000000000 ) ) ;
#35 = CARTESIAN_POINT ( 'NONE',  ( 0.000000000000000000, 0.000000000000000000, -2.000000000000000000 ) ) ;
#36 = CARTESIAN_POINT ( 'NONE',  ( -1.850000000000000311, 0.000000000000000000, 9.000000000000000000 ) ) ;
#37 = EDGE_LOOP ( 'NONE', ( #189, #119, #50, #44 ) ) ;
#38 =( LENGTH_UNIT ( ) NAMED_UNIT ( * ) SI_UNIT ( .CENTI., .METRE. ) );
#39 = PRODUCT_DEFINITION_SHAPE ( 'NONE', 'NONE',  #199 ) ;
#40 = LINE ( 'NONE', #80, #14 ) ;
#41 = SURFACE_STYLE_USAGE ( .BOTH. , #254 ) ;
#42 = STYLED_ITEM ( 'NONE', ( #111 ), #231 ) ;
#43 = EDGE_CURVE ( 'NONE', #25, #116, #174, .T. ) ;
#44 = ORIENTED_EDGE ( 'NONE', *, *, #43, .F. ) ;
#45 = APPLICATION_PROTOCOL_DEFINITION ( 'draft international standard', 'automotive_design', 1998, #15 ) ;
#46 = ORIENTED_EDGE ( 'NONE', *, *, #278, .T. ) ;
#47 = CIRCLE ( 'NONE', #112, 0.4000000000000000222 ) ;
#48 = VECTOR ( 'NONE', #179, 100.0000000000000000 ) ;
#49 = EDGE_LOOP ( 'NONE', ( #262, #127 ) ) ;
#50 = ORIENTED_EDGE ( 'NONE', *, *, #67, .F. ) ;
#51 = AXIS2_PLACEMENT_3D ( 'NONE', #170, #129, #63 ) ;
#52 = ADVANCED_FACE ( 'NONE', ( #53, #30 ), #104, .F. ) ;
#53 = FACE_BOUND ( 'NONE', #257, .T. ) ;
#54 = FILL_AREA_STYLE_COLOUR ( '', #98 ) ;
#55 = DIRECTION ( 'NONE',  ( 1.000000000000000000, 0.000000000000000000, 0.000000000000000000 ) ) ;
#56 = EDGE_CURVE ( 'NONE', #71, #116, #47, .T. ) ;
#57 = LINE ( 'NONE', #4, #19 ) ;
#58 = PLANE ( 'NONE',  #214 ) ;
#59 = AXIS2_PLACEMENT_3D ( 'NONE', #161, #162, #86 ) ;
#60 = SURFACE_STYLE_FILL_AREA ( #269 ) ;
#61 = CARTESIAN_POINT ( 'NONE',  ( 1.850000000000000311, 2.265596578422603594E-16, 9.000000000000000000 ) ) ;
#62 = CARTESIAN_POINT ( 'NONE',  ( -1.850000000000000311, 0.000000000000000000, 9.000000000000000000 ) ) ;
#63 = DIRECTION ( 'NONE',  ( 1.000000000000000000, 0.000000000000000000, 0.000000000000000000 ) ) ;
#64 = AXIS2_PLACEMENT_3D ( 'NONE', #108, #222, #7 ) ;
#65 = CARTESIAN_POINT ( 'NONE',  ( 0.000000000000000000, 0.000000000000000000, 0.000000000000000000 ) ) ;
#66 = CARTESIAN_POINT ( 'NONE',  ( 1.850000000000000311, 2.265596578422603594E-16, 0.000000000000000000 ) ) ;
#67 = EDGE_CURVE ( 'NONE', #116, #71, #209, .T. ) ;
#68 = AXIS2_PLACEMENT_3D ( 'NONE', #106, #5, #102 ) ;
#69 = ORIENTED_EDGE ( 'NONE', *, *, #290, .T. ) ;
#70 = ORIENTED_EDGE ( 'NONE', *, *, #229, .T. ) ;
#71 = VERTEX_POINT ( 'NONE', #289 ) ;
#72 = AXIS2_PLACEMENT_3D ( 'NONE', #230, #293, #18 ) ;
#73 = ORIENTED_EDGE ( 'NONE', *, *, #290, .F. ) ;
#74 = UNCERTAINTY_MEASURE_WITH_UNIT (LENGTH_MEASURE( 1.000000000000000082E-05 ), #38, 'distance_accuracy_value', 'NONE');
#75 = MECHANICAL_DESIGN_GEOMETRIC_PRESENTATION_REPRESENTATION (  '', ( #42 ), #151 ) ;
#76 = CARTESIAN_POINT ( 'NONE',  ( 0.4000000000000000222, 0.000000000000000000, 0.000000000000000000 ) ) ;
#77 = DIRECTION ( 'NONE',  ( -0.000000000000000000, 0.000000000000000000, 1.000000000000000000 ) ) ;
#78 = CARTESIAN_POINT ( 'NONE',  ( 0.000000000000000000, 0.000000000000000000, 0.000000000000000000 ) ) ;
#79 = FACE_OUTER_BOUND ( 'NONE', #37, .T. ) ;
#80 = CARTESIAN_POINT ( 'NONE',  ( 0.4000000000000000222, 4.898587196589411843E-17, 9.000000000000000000 ) ) ;
#81 = ORIENTED_EDGE ( 'NONE', *, *, #167, .T. ) ;
#82 = CLOSED_SHELL ( 'NONE', ( #182, #142, #193, #147, #92, #52 ) ) ;
#83 = STYLED_ITEM ( 'NONE', ( #113 ), #234 ) ;
#84 = DIRECTION ( 'NONE',  ( -1.000000000000000000, 0.000000000000000000, 0.000000000000000000 ) ) ;
#85 = CARTESIAN_POINT ( 'NONE',  ( 0.4000000000000000222, 0.000000000000000000, -2.000000000000000000 ) ) ;
#86 = DIRECTION ( 'NONE',  ( 1.000000000000000000, 0.000000000000000000, 0.000000000000000000 ) ) ;
#87 = ADVANCED_FACE ( 'NONE', ( #267 ), #196, .F. ) ;
#88 = SURFACE_STYLE_USAGE ( .BOTH. , #133 ) ;
#89 = AXIS2_PLACEMENT_3D ( 'NONE', #153, #124, #11 ) ;
#90 = DIRECTION ( 'NONE',  ( 1.000000000000000000, 0.000000000000000000, 0.000000000000000000 ) ) ;
#91 = CIRCLE ( 'NONE', #33, 0.4000000000000000222 ) ;
#92 = ADVANCED_FACE ( 'NONE', ( #149, #244 ), #58, .T. ) ;
#93 = EDGE_LOOP ( 'NONE', ( #3, #141, #81, #260 ) ) ;
#94 = ORIENTED_EDGE ( 'NONE', *, *, #28, .F. ) ;
#95 = ORIENTED_EDGE ( 'NONE', *, *, #132, .F. ) ;
#96 = DIRECTION ( 'NONE',  ( 1.000000000000000000, 0.000000000000000000, 0.000000000000000000 ) ) ;
#97 = VERTEX_POINT ( 'NONE', #286 ) ;
#98 = COLOUR_RGB ( '',0.7921568627450980005, 0.8196078431372548767, 0.9333333333333333481 ) ;
#99 = VERTEX_POINT ( 'NONE', #249 ) ;
#100 = ADVANCED_FACE ( 'NONE', ( #107 ), #103, .T. ) ;
#101 = CARTESIAN_POINT ( 'NONE',  ( 0.000000000000000000, 0.000000000000000000, 0.000000000000000000 ) ) ;
#102 = DIRECTION ( 'NONE',  ( 1.000000000000000000, 0.000000000000000000, 0.000000000000000000 ) ) ;
#103 = PLANE ( 'NONE',  #284 ) ;
#104 = PLANE ( 'NONE',  #276 ) ;
#105 = CARTESIAN_POINT ( 'NONE',  ( 0.000000000000000000, 0.000000000000000000, 0.000000000000000000 ) ) ;
#106 = CARTESIAN_POINT ( 'NONE',  ( 0.000000000000000000, 0.000000000000000000, 0.000000000000000000 ) ) ;
#107 = FACE_OUTER_BOUND ( 'NONE', #239, .T. ) ;
#108 = CARTESIAN_POINT ( 'NONE',  ( 0.000000000000000000, 0.000000000000000000, 9.000000000000000000 ) ) ;
#109 = DIRECTION ( 'NONE',  ( -0.000000000000000000, -0.000000000000000000, -1.000000000000000000 ) ) ;
#110 = DIRECTION ( 'NONE',  ( -0.000000000000000000, 0.000000000000000000, 1.000000000000000000 ) ) ;
#111 = PRESENTATION_STYLE_ASSIGNMENT (( #41 ) ) ;
#112 = AXIS2_PLACEMENT_3D ( 'NONE', #273, #242, #157 ) ;
#113 = PRESENTATION_STYLE_ASSIGNMENT (( #88 ) ) ;
#114 = MECHANICAL_DESIGN_GEOMETRIC_PRESENTATION_REPRESENTATION (  '', ( #83 ), #261 ) ;
#115 = CARTESIAN_POINT ( 'NONE',  ( 0.000000000000000000, 0.000000000000000000, 0.000000000000000000 ) ) ;
#116 = VERTEX_POINT ( 'NONE', #76 ) ;
#117 = EDGE_LOOP ( 'NONE', ( #185, #270 ) ) ;
#118 =( NAMED_UNIT ( * ) PLANE_ANGLE_UNIT ( ) SI_UNIT ( $, .RADIAN. ) );
#119 = ORIENTED_EDGE ( 'NONE', *, *, #216, .T. ) ;
#120 = ORIENTED_EDGE ( 'NONE', *, *, #125, .T. ) ;
#121 = AXIS2_PLACEMENT_3D ( 'NONE', #202, #197, #84 ) ;
#122 = DIRECTION ( 'NONE',  ( -1.000000000000000000, 0.000000000000000000, 0.000000000000000000 ) ) ;
#123 = ORIENTED_EDGE ( 'NONE', *, *, #188, .F. ) ;
#124 = DIRECTION ( 'NONE',  ( -0.000000000000000000, -0.000000000000000000, -1.000000000000000000 ) ) ;
#125 = EDGE_CURVE ( 'NONE', #172, #282, #160, .T. ) ;
#126 = COLOUR_RGB ( '',0.7921568627450980005, 0.8196078431372548767, 0.9333333333333333481 ) ;
#127 = ORIENTED_EDGE ( 'NONE', *, *, #17, .T. ) ;
#128 = LINE ( 'NONE', #36, #48 ) ;
#129 = DIRECTION ( 'NONE',  ( -0.000000000000000000, 0.000000000000000000, 1.000000000000000000 ) ) ;
#130 = DIRECTION ( 'NONE',  ( 1.000000000000000000, 0.000000000000000000, 0.000000000000000000 ) ) ;
#131 = ORIENTED_EDGE ( 'NONE', *, *, #229, .F. ) ;
#132 = EDGE_CURVE ( 'NONE', #140, #99, #128, .T. ) ;
#133 = SURFACE_SIDE_STYLE ('',( #159 ) ) ;
#134 = DIRECTION ( 'NONE',  ( 1.000000000000000000, 0.000000000000000000, 0.000000000000000000 ) ) ;
#135 = AXIS2_PLACEMENT_3D ( 'NONE', #35, #287, #201 ) ;
#136 = DIRECTION ( 'NONE',  ( 1.000000000000000000, 0.000000000000000000, 0.000000000000000000 ) ) ;
#137 = FILL_AREA_STYLE ('',( #296 ) ) ;
#138 = CYLINDRICAL_SURFACE ( 'NONE', #139, 0.4000000000000000222 ) ;
#139 = AXIS2_PLACEMENT_3D ( 'NONE', #155, #251, #204 ) ;
#140 = VERTEX_POINT ( 'NONE', #62 ) ;
#141 = ORIENTED_EDGE ( 'NONE', *, *, #28, .T. ) ;
#142 = ADVANCED_FACE ( 'NONE', ( #225 ), #218, .F. ) ;
#143 = ORIENTED_EDGE ( 'NONE', *, *, #56, .F. ) ;
#144 = AXIS2_PLACEMENT_3D ( 'NONE', #171, #252, #200 ) ;
#145 = DIRECTION ( 'NONE',  ( -0.000000000000000000, 0.000000000000000000, 1.000000000000000000 ) ) ;
#146 = ORIENTED_EDGE ( 'NONE', *, *, #56, .T. ) ;
#147 = ADVANCED_FACE ( 'NONE', ( #221 ), #31, .T. ) ;
#148 = DIRECTION ( 'NONE',  ( 1.000000000000000000, 0.000000000000000000, 0.000000000000000000 ) ) ;
#149 = FACE_BOUND ( 'NONE', #190, .T. ) ;
#150 = DIRECTION ( 'NONE',  ( 0.000000000000000000, 0.000000000000000000, 1.000000000000000000 ) ) ;
#151 =( GEOMETRIC_REPRESENTATION_CONTEXT ( 3 ) GLOBAL_UNCERTAINTY_ASSIGNED_CONTEXT ( ( #74 ) ) GLOBAL_UNIT_ASSIGNED_CONTEXT ( ( #38, #275, #253 ) ) REPRESENTATION_CONTEXT ( 'NONE', 'WORKASPACE' ) );
#152 = CARTESIAN_POINT ( 'NONE',  ( 0.000000000000000000, 0.000000000000000000, 9.000000000000000000 ) ) ;
#153 = CARTESIAN_POINT ( 'NONE',  ( 0.000000000000000000, 0.000000000000000000, 9.000000000000000000 ) ) ;
#154 = EDGE_LOOP ( 'NONE', ( #213, #46, #192, #143 ) ) ;
#155 = CARTESIAN_POINT ( 'NONE',  ( 0.000000000000000000, 0.000000000000000000, -2.000000000000000000 ) ) ;
#156 = CYLINDRICAL_SURFACE ( 'NONE', #144, 1.850000000000000311 ) ;
#157 = DIRECTION ( 'NONE',  ( 1.000000000000000000, 0.000000000000000000, 0.000000000000000000 ) ) ;
#158 = PRODUCT ( 'Pro-Range 72.6 N-cm 468 RPM 24V', 'Pro-Range 72.6 N-cm 468 RPM 24V', '', ( #187 ) ) ;
#159 = SURFACE_STYLE_FILL_AREA ( #137 ) ;
#160 = CIRCLE ( 'NONE', #195, 0.4000000000000000222 ) ;
#161 = CARTESIAN_POINT ( 'NONE',  ( 0.000000000000000000, 0.000000000000000000, -2.000000000000000000 ) ) ;
#162 = DIRECTION ( 'NONE',  ( -0.000000000000000000, 0.000000000000000000, 1.000000000000000000 ) ) ;
#163 = PRODUCT_RELATED_PRODUCT_CATEGORY ( 'part', '', ( #158 ) ) ;
#164 = EDGE_LOOP ( 'NONE', ( #73, #212, #277, #22 ) ) ;
#165 = ORIENTED_EDGE ( 'NONE', *, *, #67, .T. ) ;
#166 = CIRCLE ( 'NONE', #245, 1.850000000000000311 ) ;
#167 = EDGE_CURVE ( 'NONE', #265, #172, #271, .T. ) ;
#168 = ORIENTED_EDGE ( 'NONE', *, *, #272, .F. ) ;
#169 = CIRCLE ( 'NONE', #232, 1.850000000000000311 ) ;
#170 = CARTESIAN_POINT ( 'NONE',  ( 0.000000000000000000, 0.000000000000000000, 9.000000000000000000 ) ) ;
#171 = CARTESIAN_POINT ( 'NONE',  ( 0.000000000000000000, 0.000000000000000000, 9.000000000000000000 ) ) ;
#172 = VERTEX_POINT ( 'NONE', #6 ) ;
#173 = FACE_OUTER_BOUND ( 'NONE', #93, .T. ) ;
#174 = LINE ( 'NONE', #85, #176 ) ;
#175 = FACE_OUTER_BOUND ( 'NONE', #297, .T. ) ;
#176 = VECTOR ( 'NONE', #219, 100.0000000000000000 ) ;
#177 = CIRCLE ( 'NONE', #59, 0.4000000000000000222 ) ;
#178 = APPLICATION_CONTEXT ( 'automotive_design' ) ;
#179 = DIRECTION ( 'NONE',  ( -0.000000000000000000, -0.000000000000000000, -1.000000000000000000 ) ) ;
#180 = DIRECTION ( 'NONE',  ( 1.000000000000000000, 0.000000000000000000, 0.000000000000000000 ) ) ;
#181 = CIRCLE ( 'NONE', #256, 0.4000000000000000222 ) ;
#182 = ADVANCED_FACE ( 'NONE', ( #175 ), #156, .T. ) ;
#183 = CARTESIAN_POINT ( 'NONE',  ( 1.850000000000000311, 2.265596578422603594E-16, 9.000000000000000000 ) ) ;
#184 = EDGE_CURVE ( 'NONE', #211, #282, #40, .T. ) ;
#185 = ORIENTED_EDGE ( 'NONE', *, *, #240, .F. ) ;
#186 = ORIENTED_EDGE ( 'NONE', *, *, #237, .T. ) ;
#187 = PRODUCT_CONTEXT ( 'NONE', #178, 'mechanical' ) ;
#188 = EDGE_CURVE ( 'NONE', #99, #299, #166, .T. ) ;
#189 = ORIENTED_EDGE ( 'NONE', *, *, #240, .T. ) ;
#190 = EDGE_LOOP ( 'NONE', ( #168, #94 ) ) ;
#191 = AXIS2_PLACEMENT_3D ( 'NONE', #16, #205, #90 ) ;
#192 = ORIENTED_EDGE ( 'NONE', *, *, #43, .T. ) ;
#193 = ADVANCED_FACE ( 'NONE', ( #173 ), #264, .F. ) ;
#194 = DIRECTION ( 'NONE',  ( -0.000000000000000000, 0.000000000000000000, 1.000000000000000000 ) ) ;
#195 = AXIS2_PLACEMENT_3D ( 'NONE', #243, #145, #130 ) ;
#196 = PLANE ( 'NONE',  #220 ) ;
#197 = DIRECTION ( 'NONE',  ( -0.000000000000000000, -0.000000000000000000, -1.000000000000000000 ) ) ;
#198 = DIRECTION ( 'NONE',  ( -0.000000000000000000, 0.000000000000000000, 1.000000000000000000 ) ) ;
#199 = PRODUCT_DEFINITION ( 'UNKNOWN', '', #1, #217 ) ;
#200 = DIRECTION ( 'NONE',  ( -1.000000000000000000, 0.000000000000000000, 0.000000000000000000 ) ) ;
#201 = DIRECTION ( 'NONE',  ( 1.000000000000000000, 0.000000000000000000, 0.000000000000000000 ) ) ;
#202 = CARTESIAN_POINT ( 'NONE',  ( 0.000000000000000000, 0.000000000000000000, 9.000000000000000000 ) ) ;
#203 = CYLINDRICAL_SURFACE ( 'NONE', #135, 0.4000000000000000222 ) ;
#204 = DIRECTION ( 'NONE',  ( 1.000000000000000000, 0.000000000000000000, 0.000000000000000000 ) ) ;
#205 = DIRECTION ( 'NONE',  ( -0.000000000000000000, 0.000000000000000000, 1.000000000000000000 ) ) ;
#206 = CIRCLE ( 'NONE', #72, 0.4000000000000000222 ) ;
#207 = LINE ( 'NONE', #183, #233 ) ;
#208 = ORIENTED_EDGE ( 'NONE', *, *, #17, .F. ) ;
#209 = CIRCLE ( 'NONE', #68, 0.4000000000000000222 ) ;
#210 = DIRECTION ( 'NONE',  ( 0.000000000000000000, 0.000000000000000000, 1.000000000000000000 ) ) ;
#211 = VERTEX_POINT ( 'NONE', #246 ) ;
#212 = ORIENTED_EDGE ( 'NONE', *, *, #23, .F. ) ;
#213 = ORIENTED_EDGE ( 'NONE', *, *, #216, .F. ) ;
#214 = AXIS2_PLACEMENT_3D ( 'NONE', #152, #224, #9 ) ;
#215 =( GEOMETRIC_REPRESENTATION_CONTEXT ( 3 ) GLOBAL_UNCERTAINTY_ASSIGNED_CONTEXT ( ( #283 ) ) GLOBAL_UNIT_ASSIGNED_CONTEXT ( ( #24, #118, #301 ) ) REPRESENTATION_CONTEXT ( 'NONE', 'WORKASPACE' ) );
#216 = EDGE_CURVE ( 'NONE', #97, #71, #57, .T. ) ;
#217 = PRODUCT_DEFINITION_CONTEXT ( 'detailed design', #15, 'design' ) ;
#218 = CYLINDRICAL_SURFACE ( 'NONE', #121, 0.4000000000000000222 ) ;
#219 = DIRECTION ( 'NONE',  ( 0.000000000000000000, 0.000000000000000000, 1.000000000000000000 ) ) ;
#220 = AXIS2_PLACEMENT_3D ( 'NONE', #248, #285, #55 ) ;
#221 = FACE_OUTER_BOUND ( 'NONE', #164, .T. ) ;
#222 = DIRECTION ( 'NONE',  ( -0.000000000000000000, 0.000000000000000000, 1.000000000000000000 ) ) ;
#223 = DIRECTION ( 'NONE',  ( 1.000000000000000000, 0.000000000000000000, 0.000000000000000000 ) ) ;
#224 = DIRECTION ( 'NONE',  ( -0.000000000000000000, 0.000000000000000000, 1.000000000000000000 ) ) ;
#225 = FACE_OUTER_BOUND ( 'NONE', #236, .T. ) ;
#226 = DIRECTION ( 'NONE',  ( 1.000000000000000000, 0.000000000000000000, 0.000000000000000000 ) ) ;
#227 =( NAMED_UNIT ( * ) SI_UNIT ( $, .STERADIAN. ) SOLID_ANGLE_UNIT ( ) );
#228 =( LENGTH_UNIT ( ) NAMED_UNIT ( * ) SI_UNIT ( .CENTI., .METRE. ) );
#229 = EDGE_CURVE ( 'NONE', #299, #99, #169, .T. ) ;
#230 = CARTESIAN_POINT ( 'NONE',  ( 0.000000000000000000, 0.000000000000000000, -2.000000000000000000 ) ) ;
#231 = MANIFOLD_SOLID_BREP ( 'Boss-Extrude1', #82 ) ;
#232 = AXIS2_PLACEMENT_3D ( 'NONE', #101, #194, #223 ) ;
#233 = VECTOR ( 'NONE', #109, 100.0000000000000000 ) ;
#234 = MANIFOLD_SOLID_BREP ( 'Boss-Extrude2', #2 ) ;
#235 = ADVANCED_BREP_SHAPE_REPRESENTATION ( 'Pro-Range 72.6 N-cm 468 RPM 24V', ( #231, #234, #259 ), #215 ) ;
#236 = EDGE_LOOP ( 'NONE', ( #279, #258, #238, #250 ) ) ;
#237 = EDGE_CURVE ( 'NONE', #282, #172, #91, .T. ) ;
#238 = ORIENTED_EDGE ( 'NONE', *, *, #125, .F. ) ;
#239 = EDGE_LOOP ( 'NONE', ( #165, #146 ) ) ;
#240 = EDGE_CURVE ( 'NONE', #25, #97, #206, .T. ) ;
#241 = DIRECTION ( 'NONE',  ( -0.000000000000000000, 0.000000000000000000, 1.000000000000000000 ) ) ;
#242 = DIRECTION ( 'NONE',  ( -0.000000000000000000, 0.000000000000000000, 1.000000000000000000 ) ) ;
#243 = CARTESIAN_POINT ( 'NONE',  ( 0.000000000000000000, 0.000000000000000000, 0.000000000000000000 ) ) ;
#244 = FACE_OUTER_BOUND ( 'NONE', #49, .T. ) ;
#245 = AXIS2_PLACEMENT_3D ( 'NONE', #78, #241, #134 ) ;
#246 = CARTESIAN_POINT ( 'NONE',  ( 0.4000000000000000222, 4.898587196589411843E-17, 9.000000000000000000 ) ) ;
#247 = PRESENTATION_LAYER_ASSIGNMENT (  '', '', ( #83 ) ) ;
#248 = CARTESIAN_POINT ( 'NONE',  ( 0.000000000000000000, 0.000000000000000000, -2.000000000000000000 ) ) ;
#249 = CARTESIAN_POINT ( 'NONE',  ( -1.850000000000000311, 0.000000000000000000, 0.000000000000000000 ) ) ;
#250 = ORIENTED_EDGE ( 'NONE', *, *, #167, .F. ) ;
#251 = DIRECTION ( 'NONE',  ( 0.000000000000000000, 0.000000000000000000, 1.000000000000000000 ) ) ;
#252 = DIRECTION ( 'NONE',  ( -0.000000000000000000, -0.000000000000000000, -1.000000000000000000 ) ) ;
#253 =( NAMED_UNIT ( * ) SI_UNIT ( $, .STERADIAN. ) SOLID_ANGLE_UNIT ( ) );
#254 = SURFACE_SIDE_STYLE ('',( #60 ) ) ;
#255 = FACE_OUTER_BOUND ( 'NONE', #154, .T. ) ;
#256 = AXIS2_PLACEMENT_3D ( 'NONE', #263, #77, #226 ) ;
#257 = EDGE_LOOP ( 'NONE', ( #120, #186 ) ) ;
#258 = ORIENTED_EDGE ( 'NONE', *, *, #184, .T. ) ;
#259 = AXIS2_PLACEMENT_3D ( 'NONE', #115, #210, #96 ) ;
#260 = ORIENTED_EDGE ( 'NONE', *, *, #237, .F. ) ;
#261 =( GEOMETRIC_REPRESENTATION_CONTEXT ( 3 ) GLOBAL_UNCERTAINTY_ASSIGNED_CONTEXT ( ( #27 ) ) GLOBAL_UNIT_ASSIGNED_CONTEXT ( ( #228, #274, #227 ) ) REPRESENTATION_CONTEXT ( 'NONE', 'WORKASPACE' ) );
#262 = ORIENTED_EDGE ( 'NONE', *, *, #23, .T. ) ;
#263 = CARTESIAN_POINT ( 'NONE',  ( 0.000000000000000000, 0.000000000000000000, 9.000000000000000000 ) ) ;
#264 = CYLINDRICAL_SURFACE ( 'NONE', #281, 0.4000000000000000222 ) ;
#265 = VERTEX_POINT ( 'NONE', #294 ) ;
#266 = CARTESIAN_POINT ( 'NONE',  ( -0.4000000000000000222, 0.000000000000000000, 9.000000000000000000 ) ) ;
#267 = FACE_OUTER_BOUND ( 'NONE', #117, .T. ) ;
#268 = PRESENTATION_LAYER_ASSIGNMENT (  '', '', ( #42 ) ) ;
#269 = FILL_AREA_STYLE ('',( #54 ) ) ;
#270 = ORIENTED_EDGE ( 'NONE', *, *, #278, .F. ) ;
#271 = LINE ( 'NONE', #266, #295 ) ;
#272 = EDGE_CURVE ( 'NONE', #265, #211, #20, .T. ) ;
#273 = CARTESIAN_POINT ( 'NONE',  ( 0.000000000000000000, 0.000000000000000000, 0.000000000000000000 ) ) ;
#274 =( NAMED_UNIT ( * ) PLANE_ANGLE_UNIT ( ) SI_UNIT ( $, .RADIAN. ) );
#275 =( NAMED_UNIT ( * ) PLANE_ANGLE_UNIT ( ) SI_UNIT ( $, .RADIAN. ) );
#276 = AXIS2_PLACEMENT_3D ( 'NONE', #292, #198, #180 ) ;
#277 = ORIENTED_EDGE ( 'NONE', *, *, #132, .T. ) ;
#278 = EDGE_CURVE ( 'NONE', #97, #25, #177, .T. ) ;
#279 = ORIENTED_EDGE ( 'NONE', *, *, #272, .T. ) ;
#280 = APPLICATION_PROTOCOL_DEFINITION ( 'draft international standard', 'automotive_design', 1998, #178 ) ;
#281 = AXIS2_PLACEMENT_3D ( 'NONE', #288, #29, #122 ) ;
#282 = VERTEX_POINT ( 'NONE', #13 ) ;
#283 = UNCERTAINTY_MEASURE_WITH_UNIT (LENGTH_MEASURE( 1.000000000000000082E-05 ), #24, 'distance_accuracy_value', 'NONE');
#284 = AXIS2_PLACEMENT_3D ( 'NONE', #105, #291, #148 ) ;
#285 = DIRECTION ( 'NONE',  ( -0.000000000000000000, 0.000000000000000000, 1.000000000000000000 ) ) ;
#286 = CARTESIAN_POINT ( 'NONE',  ( -0.4000000000000000222, 4.898587196589412459E-17, -2.000000000000000000 ) ) ;
#287 = DIRECTION ( 'NONE',  ( 0.000000000000000000, 0.000000000000000000, 1.000000000000000000 ) ) ;
#288 = CARTESIAN_POINT ( 'NONE',  ( 0.000000000000000000, 0.000000000000000000, 9.000000000000000000 ) ) ;
#289 = CARTESIAN_POINT ( 'NONE',  ( -0.4000000000000000222, 4.898587196589412459E-17, 0.000000000000000000 ) ) ;
#290 = EDGE_CURVE ( 'NONE', #26, #299, #207, .T. ) ;
#291 = DIRECTION ( 'NONE',  ( -0.000000000000000000, 0.000000000000000000, 1.000000000000000000 ) ) ;
#292 = CARTESIAN_POINT ( 'NONE',  ( 0.000000000000000000, 0.000000000000000000, 0.000000000000000000 ) ) ;
#293 = DIRECTION ( 'NONE',  ( -0.000000000000000000, 0.000000000000000000, 1.000000000000000000 ) ) ;
#294 = CARTESIAN_POINT ( 'NONE',  ( -0.4000000000000000222, 0.000000000000000000, 9.000000000000000000 ) ) ;
#295 = VECTOR ( 'NONE', #34, 100.0000000000000000 ) ;
#296 = FILL_AREA_STYLE_COLOUR ( '', #126 ) ;
#297 = EDGE_LOOP ( 'NONE', ( #208, #69, #70, #95 ) ) ;
#298 = CIRCLE ( 'NONE', #64, 1.850000000000000311 ) ;
#299 = VERTEX_POINT ( 'NONE', #66 ) ;
#300 = SHAPE_DEFINITION_REPRESENTATION ( #39, #235 ) ;
#301 =( NAMED_UNIT ( * ) SI_UNIT ( $, .STERADIAN. ) SOLID_ANGLE_UNIT ( ) );
#302 = ADVANCED_FACE ( 'NONE', ( #255 ), #138, .T. ) ;
ENDSEC;
END-ISO-10303-21;
