ISO-10303-21;
HEADER;
FILE_DESCRIPTION (( 'STEP AP214' ),
    '1' );
FILE_NAME ('SmartElex 30D Smart Motor Driver.STEP',
    '2026-09-12T11:55:37',
    ( '' ),
    ( '' ),
    'SwSTEP 2.0',
    'SolidWorks 2026',
    '' );
FILE_SCHEMA (( 'AUTOMOTIVE_DESIGN' ));
ENDSEC;

DATA;
#1 = ORIENTED_EDGE ( 'NONE', *, *, #165, .T. ) ;
#2 = DIRECTION ( 'NONE',  ( -0.000000000000000000, -0.000000000000000000, -1.000000000000000000 ) ) ;
#3 = DIRECTION ( 'NONE',  ( -0.000000000000000000, -0.000000000000000000, -1.000000000000000000 ) ) ;
#4 = CARTESIAN_POINT ( 'NONE',  ( -3.799999999999999378, 2.599999999999999645, 11.50000000000000000 ) ) ;
#5 = VECTOR ( 'NONE', #117, 100.0000000000000000 ) ;
#6 = PLANE ( 'NONE',  #91 ) ;
#7 = DIRECTION ( 'NONE',  ( 2.668805347656626185E-16, -1.000000000000000000, 0.000000000000000000 ) ) ;
#8 = PLANE ( 'NONE',  #25 ) ;
#9 = UNCERTAINTY_MEASURE_WITH_UNIT (LENGTH_MEASURE( 1.000000000000000082E-05 ), #73, 'distance_accuracy_value', 'NONE');
#10 = DIRECTION ( 'NONE',  ( 0.000000000000000000, 1.000000000000000000, 0.000000000000000000 ) ) ;
#11 = PRODUCT_RELATED_PRODUCT_CATEGORY ( 'part', '', ( #13 ) ) ;
#12 = AXIS2_PLACEMENT_3D ( 'NONE', #18, #34, #21 ) ;
#13 = PRODUCT ( 'SmartElex 30D Smart Motor Driver', 'SmartElex 30D Smart Motor Driver', '', ( #183 ) ) ;
#14 = EDGE_CURVE ( 'NONE', #16, #159, #100, .T. ) ;
#15 = CARTESIAN_POINT ( 'NONE',  ( -3.799999999999999378, 2.599999999999999645, 11.50000000000000000 ) ) ;
#16 = VERTEX_POINT ( 'NONE', #98 ) ;
#17 = LINE ( 'NONE', #130, #139 ) ;
#18 = CARTESIAN_POINT ( 'NONE',  ( 0.000000000000000000, 0.000000000000000000, 11.50000000000000000 ) ) ;
#19 = VERTEX_POINT ( 'NONE', #83 ) ;
#20 = CARTESIAN_POINT ( 'NONE',  ( -3.799999999999999378, 2.599999999999999645, 11.50000000000000000 ) ) ;
#21 = DIRECTION ( 'NONE',  ( 1.000000000000000000, 0.000000000000000000, 0.000000000000000000 ) ) ;
#22 = FACE_OUTER_BOUND ( 'NONE', #29, .T. ) ;
#23 = DIRECTION ( 'NONE',  ( -1.000000000000000000, -2.668805347656626185E-16, 0.000000000000000000 ) ) ;
#24 = EDGE_CURVE ( 'NONE', #30, #187, #54, .T. ) ;
#25 = AXIS2_PLACEMENT_3D ( 'NONE', #134, #44, #118 ) ;
#26 = ORIENTED_EDGE ( 'NONE', *, *, #108, .F. ) ;
#27 = EDGE_CURVE ( 'NONE', #159, #142, #99, .T. ) ;
#28 = ORIENTED_EDGE ( 'NONE', *, *, #124, .F. ) ;
#29 = EDGE_LOOP ( 'NONE', ( #28, #57, #42, #160 ) ) ;
#30 = VERTEX_POINT ( 'NONE', #179 ) ;
#31 =( NAMED_UNIT ( * ) PLANE_ANGLE_UNIT ( ) SI_UNIT ( $, .RADIAN. ) );
#32 = ORIENTED_EDGE ( 'NONE', *, *, #108, .T. ) ;
#33 = CARTESIAN_POINT ( 'NONE',  ( -3.799999999999999378, 2.599999999999999645, 0.000000000000000000 ) ) ;
#34 = DIRECTION ( 'NONE',  ( -0.000000000000000000, 0.000000000000000000, 1.000000000000000000 ) ) ;
#35 = PLANE ( 'NONE',  #122 ) ;
#36 = PRESENTATION_STYLE_ASSIGNMENT (( #43 ) ) ;
#37 = STYLED_ITEM ( 'NONE', ( #36 ), #63 ) ;
#38 = VECTOR ( 'NONE', #46, 100.0000000000000000 ) ;
#39 = ADVANCED_FACE ( 'NONE', ( #135 ), #48, .F. ) ;
#40 = EDGE_LOOP ( 'NONE', ( #53, #82, #26, #125 ) ) ;
#41 = EDGE_LOOP ( 'NONE', ( #146, #169, #96, #144 ) ) ;
#42 = ORIENTED_EDGE ( 'NONE', *, *, #140, .F. ) ;
#43 = SURFACE_STYLE_USAGE ( .BOTH. , #181 ) ;
#44 = DIRECTION ( 'NONE',  ( -0.000000000000000000, 0.000000000000000000, 1.000000000000000000 ) ) ;
#45 = ORIENTED_EDGE ( 'NONE', *, *, #77, .T. ) ;
#46 = DIRECTION ( 'NONE',  ( -2.668805347656626185E-16, 1.000000000000000000, -0.000000000000000000 ) ) ;
#47 = ADVANCED_FACE ( 'NONE', ( #102 ), #150, .F. ) ;
#48 = PLANE ( 'NONE',  #158 ) ;
#49 = VECTOR ( 'NONE', #88, 100.0000000000000000 ) ;
#50 = SHAPE_DEFINITION_REPRESENTATION ( #109, #64 ) ;
#51 = PRODUCT_DEFINITION_FORMATION_WITH_SPECIFIED_SOURCE ( 'ANY', '', #13, .NOT_KNOWN. ) ;
#52 = PRODUCT_DEFINITION ( 'UNKNOWN', '', #51, #80 ) ;
#53 = ORIENTED_EDGE ( 'NONE', *, *, #27, .T. ) ;
#54 = LINE ( 'NONE', #71, #65 ) ;
#55 =( LENGTH_UNIT ( ) NAMED_UNIT ( * ) SI_UNIT ( .CENTI., .METRE. ) );
#56 = LINE ( 'NONE', #131, #58 ) ;
#57 = ORIENTED_EDGE ( 'NONE', *, *, #165, .F. ) ;
#58 = VECTOR ( 'NONE', #151, 100.0000000000000000 ) ;
#59 = LINE ( 'NONE', #115, #38 ) ;
#60 = CARTESIAN_POINT ( 'NONE',  ( 3.800000000000000711, 2.599999999999999645, 11.50000000000000000 ) ) ;
#61 = LINE ( 'NONE', #33, #173 ) ;
#62 = CARTESIAN_POINT ( 'NONE',  ( -3.799999999999998046, -2.600000000000000533, 11.50000000000000000 ) ) ;
#63 = MANIFOLD_SOLID_BREP ( 'Boss-Extrude1', #97 ) ;
#64 = ADVANCED_BREP_SHAPE_REPRESENTATION ( 'SmartElex 30D Smart Motor Driver', ( #63, #106 ), #137 ) ;
#65 = VECTOR ( 'NONE', #3, 100.0000000000000000 ) ;
#66 = DIRECTION ( 'NONE',  ( 0.000000000000000000, 0.000000000000000000, 1.000000000000000000 ) ) ;
#67 = VECTOR ( 'NONE', #2, 100.0000000000000000 ) ;
#68 = VERTEX_POINT ( 'NONE', #84 ) ;
#69 = DIRECTION ( 'NONE',  ( -0.000000000000000000, -0.000000000000000000, -1.000000000000000000 ) ) ;
#70 = DIRECTION ( 'NONE',  ( 0.000000000000000000, -0.000000000000000000, -1.000000000000000000 ) ) ;
#71 = CARTESIAN_POINT ( 'NONE',  ( -3.799999999999998046, -2.600000000000000533, 11.50000000000000000 ) ) ;
#72 = DIRECTION ( 'NONE',  ( 0.000000000000000000, -1.000000000000000000, 0.000000000000000000 ) ) ;
#73 =( LENGTH_UNIT ( ) NAMED_UNIT ( * ) SI_UNIT ( .CENTI., .METRE. ) );
#74 = AXIS2_PLACEMENT_3D ( 'NONE', #20, #164, #178 ) ;
#75 =( NAMED_UNIT ( * ) SI_UNIT ( $, .STERADIAN. ) SOLID_ANGLE_UNIT ( ) );
#76 = DIRECTION ( 'NONE',  ( -0.000000000000000000, -0.000000000000000000, -1.000000000000000000 ) ) ;
#77 = EDGE_CURVE ( 'NONE', #30, #19, #176, .T. ) ;
#78 = APPLICATION_CONTEXT ( 'automotive_design' ) ;
#79 = CARTESIAN_POINT ( 'NONE',  ( 3.800000000000000711, 2.599999999999999645, 11.50000000000000000 ) ) ;
#80 = PRODUCT_DEFINITION_CONTEXT ( 'detailed design', #78, 'design' ) ;
#81 = ORIENTED_EDGE ( 'NONE', *, *, #24, .T. ) ;
#82 = ORIENTED_EDGE ( 'NONE', *, *, #121, .F. ) ;
#83 = CARTESIAN_POINT ( 'NONE',  ( 3.800000000000002043, -2.600000000000000533, 11.50000000000000000 ) ) ;
#84 = CARTESIAN_POINT ( 'NONE',  ( -3.799999999999999378, 2.599999999999999645, 11.50000000000000000 ) ) ;
#85 = EDGE_LOOP ( 'NONE', ( #1, #107, #175, #81 ) ) ;
#86 = CARTESIAN_POINT ( 'NONE',  ( -3.799999999999999378, 2.599999999999999645, 0.000000000000000000 ) ) ;
#87 = ADVANCED_FACE ( 'NONE', ( #147 ), #35, .F. ) ;
#88 = DIRECTION ( 'NONE',  ( -1.000000000000000000, -0.000000000000000000, -0.000000000000000000 ) ) ;
#89 = DIRECTION ( 'NONE',  ( 2.668805347656626185E-16, -1.000000000000000000, 0.000000000000000000 ) ) ;
#90 = CARTESIAN_POINT ( 'NONE',  ( -3.799999999999999378, 2.599999999999999645, 11.50000000000000000 ) ) ;
#91 = AXIS2_PLACEMENT_3D ( 'NONE', #60, #23, #89 ) ;
#92 = APPLICATION_CONTEXT ( 'automotive_design' ) ;
#93 = EDGE_CURVE ( 'NONE', #68, #30, #120, .T. ) ;
#94 = EDGE_LOOP ( 'NONE', ( #170, #110, #171, #156 ) ) ;
#95 = PRESENTATION_LAYER_ASSIGNMENT (  '', '', ( #37 ) ) ;
#96 = ORIENTED_EDGE ( 'NONE', *, *, #105, .F. ) ;
#97 = CLOSED_SHELL ( 'NONE', ( #152, #87, #47, #39, #157, #186 ) ) ;
#98 = CARTESIAN_POINT ( 'NONE',  ( 3.800000000000000711, 2.599999999999999645, 11.50000000000000000 ) ) ;
#99 = LINE ( 'NONE', #167, #49 ) ;
#100 = LINE ( 'NONE', #129, #123 ) ;
#101 = CARTESIAN_POINT ( 'NONE',  ( 3.800000000000002043, -2.600000000000000533, 0.000000000000000000 ) ) ;
#102 = FACE_OUTER_BOUND ( 'NONE', #94, .T. ) ;
#103 = DIRECTION ( 'NONE',  ( 0.000000000000000000, -0.000000000000000000, 1.000000000000000000 ) ) ;
#104 = VECTOR ( 'NONE', #7, 100.0000000000000000 ) ;
#105 = EDGE_CURVE ( 'NONE', #19, #16, #153, .T. ) ;
#106 = AXIS2_PLACEMENT_3D ( 'NONE', #154, #66, #182 ) ;
#107 = ORIENTED_EDGE ( 'NONE', *, *, #177, .F. ) ;
#108 = EDGE_CURVE ( 'NONE', #16, #68, #17, .T. ) ;
#109 = PRODUCT_DEFINITION_SHAPE ( 'NONE', 'NONE',  #52 ) ;
#110 = ORIENTED_EDGE ( 'NONE', *, *, #24, .F. ) ;
#111 = CARTESIAN_POINT ( 'NONE',  ( -3.799999999999998046, -2.600000000000000533, 11.50000000000000000 ) ) ;
#112 = LINE ( 'NONE', #174, #132 ) ;
#113 = VECTOR ( 'NONE', #145, 100.0000000000000000 ) ;
#114 = EDGE_LOOP ( 'NONE', ( #141, #32, #163, #45 ) ) ;
#115 = CARTESIAN_POINT ( 'NONE',  ( 3.800000000000000711, 2.599999999999999645, 0.000000000000000000 ) ) ;
#116 = FACE_OUTER_BOUND ( 'NONE', #114, .T. ) ;
#117 = DIRECTION ( 'NONE',  ( 1.000000000000000000, 0.000000000000000000, 0.000000000000000000 ) ) ;
#118 = DIRECTION ( 'NONE',  ( 1.000000000000000000, 0.000000000000000000, 0.000000000000000000 ) ) ;
#119 = DIRECTION ( 'NONE',  ( 2.668805347656626185E-16, -1.000000000000000000, 0.000000000000000000 ) ) ;
#120 = LINE ( 'NONE', #90, #104 ) ;
#121 = EDGE_CURVE ( 'NONE', #68, #142, #136, .T. ) ;
#122 = AXIS2_PLACEMENT_3D ( 'NONE', #15, #72, #70 ) ;
#123 = VECTOR ( 'NONE', #69, 100.0000000000000000 ) ;
#124 = EDGE_CURVE ( 'NONE', #126, #159, #59, .T. ) ;
#125 = ORIENTED_EDGE ( 'NONE', *, *, #14, .T. ) ;
#126 = VERTEX_POINT ( 'NONE', #101 ) ;
#127 = DIRECTION ( 'NONE',  ( -1.000000000000000000, -0.000000000000000000, -0.000000000000000000 ) ) ;
#128 = CARTESIAN_POINT ( 'NONE',  ( 3.800000000000000711, 2.599999999999999645, 0.000000000000000000 ) ) ;
#129 = CARTESIAN_POINT ( 'NONE',  ( 3.800000000000000711, 2.599999999999999645, 11.50000000000000000 ) ) ;
#130 = CARTESIAN_POINT ( 'NONE',  ( -3.799999999999999378, 2.599999999999999645, 11.50000000000000000 ) ) ;
#131 = CARTESIAN_POINT ( 'NONE',  ( -3.799999999999998046, -2.600000000000000533, 0.000000000000000000 ) ) ;
#132 = VECTOR ( 'NONE', #76, 100.0000000000000000 ) ;
#133 = FACE_OUTER_BOUND ( 'NONE', #41, .T. ) ;
#134 = CARTESIAN_POINT ( 'NONE',  ( 0.000000000000000000, 0.000000000000000000, 0.000000000000000000 ) ) ;
#135 = FACE_OUTER_BOUND ( 'NONE', #85, .T. ) ;
#136 = LINE ( 'NONE', #4, #67 ) ;
#137 =( GEOMETRIC_REPRESENTATION_CONTEXT ( 3 ) GLOBAL_UNCERTAINTY_ASSIGNED_CONTEXT ( ( #9 ) ) GLOBAL_UNIT_ASSIGNED_CONTEXT ( ( #73, #31, #180 ) ) REPRESENTATION_CONTEXT ( 'NONE', 'WORKASPACE' ) );
#138 = APPLICATION_PROTOCOL_DEFINITION ( 'draft international standard', 'automotive_design', 1998, #78 ) ;
#139 = VECTOR ( 'NONE', #127, 100.0000000000000000 ) ;
#140 = EDGE_CURVE ( 'NONE', #142, #187, #61, .T. ) ;
#141 = ORIENTED_EDGE ( 'NONE', *, *, #105, .T. ) ;
#142 = VERTEX_POINT ( 'NONE', #86 ) ;
#143 = FILL_AREA_STYLE_COLOUR ( '', #149 ) ;
#144 = ORIENTED_EDGE ( 'NONE', *, *, #177, .T. ) ;
#145 = DIRECTION ( 'NONE',  ( -2.668805347656626185E-16, 1.000000000000000000, -0.000000000000000000 ) ) ;
#146 = ORIENTED_EDGE ( 'NONE', *, *, #124, .T. ) ;
#147 = FACE_OUTER_BOUND ( 'NONE', #40, .T. ) ;
#148 = PLANE ( 'NONE',  #12 ) ;
#149 = COLOUR_RGB ( '',0.7921568627450980005, 0.8196078431372548767, 0.9333333333333333481 ) ;
#150 = PLANE ( 'NONE',  #74 ) ;
#151 = DIRECTION ( 'NONE',  ( 1.000000000000000000, 0.000000000000000000, 0.000000000000000000 ) ) ;
#152 = ADVANCED_FACE ( 'NONE', ( #133 ), #6, .F. ) ;
#153 = LINE ( 'NONE', #79, #113 ) ;
#154 = CARTESIAN_POINT ( 'NONE',  ( 0.000000000000000000, 0.000000000000000000, 0.000000000000000000 ) ) ;
#155 = UNCERTAINTY_MEASURE_WITH_UNIT (LENGTH_MEASURE( 1.000000000000000082E-05 ), #55, 'distance_accuracy_value', 'NONE');
#156 = ORIENTED_EDGE ( 'NONE', *, *, #121, .T. ) ;
#157 = ADVANCED_FACE ( 'NONE', ( #116 ), #148, .T. ) ;
#158 = AXIS2_PLACEMENT_3D ( 'NONE', #111, #10, #103 ) ;
#159 = VERTEX_POINT ( 'NONE', #128 ) ;
#160 = ORIENTED_EDGE ( 'NONE', *, *, #27, .F. ) ;
#161 =( NAMED_UNIT ( * ) PLANE_ANGLE_UNIT ( ) SI_UNIT ( $, .RADIAN. ) );
#162 = CARTESIAN_POINT ( 'NONE',  ( -3.799999999999998046, -2.600000000000000533, 0.000000000000000000 ) ) ;
#163 = ORIENTED_EDGE ( 'NONE', *, *, #93, .T. ) ;
#164 = DIRECTION ( 'NONE',  ( 1.000000000000000000, 2.668805347656626185E-16, -0.000000000000000000 ) ) ;
#165 = EDGE_CURVE ( 'NONE', #187, #126, #56, .T. ) ;
#166 = FILL_AREA_STYLE ('',( #143 ) ) ;
#167 = CARTESIAN_POINT ( 'NONE',  ( -3.799999999999999378, 2.599999999999999645, 0.000000000000000000 ) ) ;
#168 = MECHANICAL_DESIGN_GEOMETRIC_PRESENTATION_REPRESENTATION (  '', ( #37 ), #184 ) ;
#169 = ORIENTED_EDGE ( 'NONE', *, *, #14, .F. ) ;
#170 = ORIENTED_EDGE ( 'NONE', *, *, #140, .T. ) ;
#171 = ORIENTED_EDGE ( 'NONE', *, *, #93, .F. ) ;
#172 = SURFACE_STYLE_FILL_AREA ( #166 ) ;
#173 = VECTOR ( 'NONE', #119, 100.0000000000000000 ) ;
#174 = CARTESIAN_POINT ( 'NONE',  ( 3.800000000000002043, -2.600000000000000533, 11.50000000000000000 ) ) ;
#175 = ORIENTED_EDGE ( 'NONE', *, *, #77, .F. ) ;
#176 = LINE ( 'NONE', #62, #5 ) ;
#177 = EDGE_CURVE ( 'NONE', #19, #126, #112, .T. ) ;
#178 = DIRECTION ( 'NONE',  ( -2.668805347656626185E-16, 1.000000000000000000, 0.000000000000000000 ) ) ;
#179 = CARTESIAN_POINT ( 'NONE',  ( -3.799999999999998046, -2.600000000000000533, 11.50000000000000000 ) ) ;
#180 =( NAMED_UNIT ( * ) SI_UNIT ( $, .STERADIAN. ) SOLID_ANGLE_UNIT ( ) );
#181 = SURFACE_SIDE_STYLE ('',( #172 ) ) ;
#182 = DIRECTION ( 'NONE',  ( 1.000000000000000000, 0.000000000000000000, 0.000000000000000000 ) ) ;
#183 = PRODUCT_CONTEXT ( 'NONE', #92, 'mechanical' ) ;
#184 =( GEOMETRIC_REPRESENTATION_CONTEXT ( 3 ) GLOBAL_UNCERTAINTY_ASSIGNED_CONTEXT ( ( #155 ) ) GLOBAL_UNIT_ASSIGNED_CONTEXT ( ( #55, #161, #75 ) ) REPRESENTATION_CONTEXT ( 'NONE', 'WORKASPACE' ) );
#185 = APPLICATION_PROTOCOL_DEFINITION ( 'draft international standard', 'automotive_design', 1998, #92 ) ;
#186 = ADVANCED_FACE ( 'NONE', ( #22 ), #8, .F. ) ;
#187 = VERTEX_POINT ( 'NONE', #162 ) ;
ENDSEC;
END-ISO-10303-21;
